<svg width="375" height="658" viewBox="0 0 375 658" fill="none" xmlns="http://www.w3.org/2000/svg">
<g id="bg-top" clip-path="url(#clip0_1_17)">
<g id="Group">
<path id="line3" d="M172.71 -101C70.623 -79.38 17.478 -39.688 13.273 18.074C6.96601 104.717 244.871 35.26 149.631 216.074C54.39 396.887 -31.687 401.364 13.273 514.074C58.233 626.784 178.96 685.954 319.21 641.2C412.711 611.364 463.862 500.655 472.663 309.074" stroke="#D0D5F6" stroke-width="2"/>
<path id="line2" d="M214.7 -101C134.617 -82.012 92.926 -47.154 89.628 3.575C84.68 79.668 271.307 18.669 196.594 177.465C121.882 336.262 54.36 340.192 89.628 439.18C124.897 538.166 219.602 590.13 329.623 550.826C402.97 524.622 443.096 427.395 450 259.141" stroke="#D0D5F6" stroke-width="2"/>
<path id="line1" d="M250.935 -103C190.331 -86.44 158.782 -56.037 156.285 -11.792C152.542 54.575 293.773 1.373 237.234 139.872C180.694 278.372 129.596 281.799 156.286 368.133C182.976 454.468 254.645 499.789 337.904 465.509C393.41 442.655 423.775 357.855 429 211.108" stroke="#D0D5F6" stroke-width="2"/>
</g>
</g>
<defs>
<clipPath id="clip0_1_17">
<rect width="375" height="658" fill="white"/>
</clipPath>
</defs>
</svg>
